<?xml version="1.0" encoding="UTF-8" standalone="no"?>
<!DOCTYPE svg PUBLIC "-//W3C//DTD SVG 1.1//EN" "http://www.w3.org/Graphics/SVG/1.1/DTD/svg11.dtd">
<svg width="100%" height="100%" viewBox="0 0 3840 3840" version="1.1" xmlns="http://www.w3.org/2000/svg" xmlns:xlink="http://www.w3.org/1999/xlink" xml:space="preserve" xmlns:serif="http://www.serif.com/" style="fill-rule:evenodd;clip-rule:evenodd;stroke-linecap:round;stroke-linejoin:round;stroke-miterlimit:1.5;">
    <g>
        <g transform="matrix(1,0,0,1,45.5313,124.914)">
            <path d="M1066.88,717.878C1063.12,717.993 1063.13,701.876 1066.91,701.782C1074.54,701.592 1082.22,701.401 1089.96,701.209C1956.05,679.716 3517.11,645.602 3517.11,678.94C3517.11,702.368 2785.56,693.7 2061.11,700.697C1915.7,702.102 1786.43,697.761 1645.97,701.456C1445.95,706.719 1256.14,712.136 1093.96,717.054C1084.84,717.33 1075.82,717.605 1066.88,717.878Z" style="fill:none;stroke:black;stroke-width:160px;"/>
        </g>
        <g transform="matrix(1,0,0,1,45.5313,111.914)">
            <path d="M348.169,1860.77C373.747,1856.76 632.81,1829.77 941.904,1834.95C1567.04,1845.44 2478.32,1810.35 2792.57,1808.09C2795.65,1808.06 2827.32,1868.74 2824.3,1868.72C2060.66,1864.55 946.077,1855.1 696.37,1878C342.198,1910.48 197.578,1884.39 348.169,1860.77Z" style="fill:none;stroke:black;stroke-width:160px;"/>
        </g>
        <g transform="matrix(1,0,0,1,45.5313,124.914)">
            <path d="M1746.82,2904.56C1740.35,2904.67 1726.47,2885.07 1729.87,2885.04C1734.94,2885 1740.01,2884.96 1745.09,2884.92C2543.25,2878.3 3404.69,2873.1 3455.58,2880.92C3541.84,2894.2 3004.31,2883.48 1746.82,2904.56Z" style="fill:none;stroke:black;stroke-width:160px;"/>
        </g>
        <g transform="matrix(1,0,0,1,45.5313,124.914)">
            <path d="M380.422,2897.75C380.422,2897.75 710.228,2894.26 1153.91,2890.13C1156.58,2890.11 1166.6,2915.54 1161.93,2915.63C698.264,2924.75 -99.983,2937.83 380.422,2897.75Z" style="fill:none;stroke:black;stroke-width:160px;"/>
        </g>
        <g transform="matrix(0.817054,0,0,0.937667,114.598,56.2356)">
            <path d="M502.941,424.415C502.941,424.415 460.336,613.69 465.424,810.641C465.516,814.21 232.142,808.547 228.816,810.641C212.968,820.62 272.865,879.554 392.703,863.23C413.649,860.376 465.319,808.042 465.424,810.641C475.472,1059.61 540.237,1245.34 762.977,1246.86C1207.46,1249.88 1198.39,527.22 1207.46,394.179L835.545,657.238L502.941,424.415Z" style="fill:none;stroke:black;stroke-width:147.82px;"/>
        </g>
        <g transform="matrix(0.724825,0,0,0.780866,955.416,425.498)">
            <path d="M2723.04,1396.06C2723.04,1396.06 2475.79,2397.5 3020.05,2421.68C3285.57,2433.49 3406.31,2228.26 3460.44,1993.03C3463.05,1981.68 3465.51,1970.27 3467.82,1958.8C3468.43,1955.79 3500.11,1987.57 3526.08,1983.53C3541.46,1981.13 3556.82,1942.67 3557.16,1940.88C3558.13,1935.74 3466.9,1963.95 3467.82,1958.8C3508.88,1729.29 3500.72,1457.8 3501.11,1369.45L3090.72,1717.77L2723.04,1396.06Z" style="fill:none;stroke:black;stroke-width:172.56px;"/>
        </g>
        <g transform="matrix(0.88579,0,0,0.910111,405.027,256.253)">
            <path d="M958.656,2482.85C958.656,2482.85 754.18,3348.19 1150.28,3375.4C1546.38,3402.62 1566.79,2840.02 1609.12,2537.66L1207.46,2782.57L958.656,2482.85Z" style="fill:none;stroke:black;stroke-width:144.76px;"/>
        </g>
    </g>
</svg>
