<?xml version="1.0" encoding="UTF-8" standalone="no"?>
<!DOCTYPE svg PUBLIC "-//W3C//DTD SVG 1.1//EN" "http://www.w3.org/Graphics/SVG/1.1/DTD/svg11.dtd">
<svg width="100%" height="100%" viewBox="0 0 3840 3840" version="1.1" xmlns="http://www.w3.org/2000/svg" xmlns:xlink="http://www.w3.org/1999/xlink" xml:space="preserve" xmlns:serif="http://www.serif.com/" style="fill-rule:evenodd;clip-rule:evenodd;stroke-linecap:round;stroke-linejoin:round;stroke-miterlimit:1.5;">
    <g transform="matrix(1.23758,0.0996342,-0.0872126,1.06613,-341.857,-10.3758)">
        <path d="M1311.53,2422.39C1311.53,2422.39 1566.28,2445.91 1566.28,2515.26C1566.28,2584.62 1385.95,2639.34 1385.95,2639.34C1385.95,2639.34 1572.89,2707.06 1569.59,2778.07C1566.29,2849.08 1376.05,2854.02 1376.05,2854.02C1376.05,2854.02 1476.55,2996.83 1435.26,3071.13C1393.98,3145.44 1252.65,3080.73 1174.59,2953.1C1132.3,2883.96 1022.01,2823.81 1122.8,2183.8C1122.8,2183.8 1204.76,1868.97 1262.05,1930.64" style="fill:none;stroke:black;stroke-width:182.2px;"/>
    </g>
    <g transform="matrix(1.23758,0.0996342,-0.0872126,1.06613,-341.857,-10.3758)">
        <path d="M2789.53,2218.37C2789.53,2218.37 2545.21,2132.92 2445.43,2166.88C2399.28,2182.59 2440.06,2293.18 2449.62,2325.06C2479.86,2425.85 2598.26,2434.65 2598.26,2434.65C2598.26,2434.65 2347.72,2467.66 2418.67,2612.79C2418.67,2612.79 2522.36,2698.2 2570.74,2659.5C2570.74,2659.5 2442.57,2763.08 2529.65,2830.81C2564.6,2858 2659.13,2840.26 2738.35,2776.86C2856.51,2682.29 2964.94,2512.32 2986.61,2449.09C3028.83,2325.9 3116.01,2184.91 3004.6,1857.48C2891.06,1523.79 2677.34,1423.49 2577.36,1433.17" style="fill:none;stroke:black;stroke-width:182.2px;"/>
    </g>
    <g transform="matrix(1.34236,0.260798,-0.250615,1.23937,-121.861,-628.272)">
        <path d="M1275.62,1670.17C1275.62,1670.17 989.861,1677.73 810.617,1151.27C775.399,1047.83 562.715,863.946 542.515,720.366L1085.93,870.227C1172.62,822.394 1389.77,749.494 1465.32,712.795C1465.32,712.795 1622.36,378.878 1702.99,259.544C1702.99,259.544 1805.49,342.602 1920.02,569.326C2052.84,832.264 2209.09,1055.66 2009.47,1466.13" style="fill:none;stroke:black;stroke-width:160.83px;"/>
    </g>
    <g transform="matrix(1.23758,0.0996342,-0.0872126,1.06613,-341.857,-10.3758)">
        <path d="M1352.67,2418.55L1188.89,1593.34C1188.89,1593.34 2177.88,1448.46 2272.37,1379.17C2272.37,1379.17 2341.57,2180.92 2408.85,2260.43" style="stroke:black;stroke-width:182.2px;"/>
    </g>
    <g transform="matrix(1.36611,0.109982,-0.0996738,1.21846,-462.372,-417.511)">
        <path d="M1352.67,2418.55L1178.31,1573.12C1178.31,1573.12 1878.4,1548.15 2166.03,1474.68C2226.32,1459.28 2332.04,1346.19 2348.41,1334.19C2348.41,1334.19 2364.26,1545.82 2410.72,1772.69C2456.66,1997.01 2533.32,2140.85 2536.63,2215.6" style="fill:none;stroke:black;stroke-width:162.58px;"/>
    </g>
    <g transform="matrix(1.23758,0.0996342,-0.0872126,1.06613,-341.857,-10.3758)">
        <path d="M1421.97,2915.9L1465.32,3275.25C1465.32,3275.25 2782.88,3231.16 2852.04,3205.96C2921.2,3180.76 2732.22,2846.9 2719.62,2777.61" style="fill:none;stroke:black;stroke-width:182.2px;"/>
    </g>
    <g transform="matrix(1.40234,0.112899,-0.100314,1.22629,-533.241,-553.787)">
        <path d="M1410.59,2505.7L1414.38,2558.94L1589.3,2608.06L1426.27,2726.17L1604.25,2817.1L1440.99,2933.12L1624.72,3103.22L1457.93,3171.42L1465.32,3275.25C1465.32,3275.25 2387.87,3244.38 2729.55,3219.53C2796.2,3214.69 2962.16,3081.07 2973.45,3076.95C3025.33,3058.05 2862.65,2899.82 2772.82,2792.7C2750.94,2766.6 2577.06,2843.58 2484.05,2880.01C2449.93,2893.38 2216.46,2390.42 2215.61,2385.77" style="stroke:black;stroke-width:159.76px;"/>
    </g>
    <g transform="matrix(1.06698,0,0,1.13748,76.8971,48.7051)">
        <path d="M2544.28,647.797C2544.28,647.797 1965.63,438.581 1646.8,1002.84C1646.8,1002.84 2351.65,1327.49 2544.28,647.797Z" style="fill:none;stroke:black;stroke-width:191.33px;"/>
    </g>
    <g transform="matrix(1.29386,0,0,1.41163,-164.323,-307.147)">
        <path d="M510.786,1326.47C510.786,1326.47 509.073,682.679 1274.35,1042.21C1274.35,1042.21 998.744,1468.52 510.786,1326.47Z" style="fill:none;stroke:black;stroke-width:155.83px;"/>
    </g>
    <g transform="matrix(1,0,0,1,-31.3091,-74.6874)">
        <path d="M1016.84,1084.67L1148.66,1551.02" style="fill:none;stroke:black;stroke-width:211px;"/>
    </g>
    <g transform="matrix(1,0,0,1,1144.67,-74.6874)">
        <path d="M1009.23,967.151C1000.81,1016.53 1007.94,1090.12 1087.56,1317.85" style="fill:none;stroke:black;stroke-width:211px;"/>
    </g>
</svg>
