<?xml version="1.0" encoding="UTF-8" standalone="no"?>
<!DOCTYPE svg PUBLIC "-//W3C//DTD SVG 1.1//EN" "http://www.w3.org/Graphics/SVG/1.1/DTD/svg11.dtd">
<svg width="100%" height="100%" viewBox="0 0 3840 3840" version="1.1" xmlns="http://www.w3.org/2000/svg" xmlns:xlink="http://www.w3.org/1999/xlink" xml:space="preserve" xmlns:serif="http://www.serif.com/" style="fill-rule:evenodd;clip-rule:evenodd;stroke-linecap:round;stroke-linejoin:round;stroke-miterlimit:1.5;">
    <g>
        <path d="M1764.8,2127.15C1764.8,2127.15 1768.83,1720.19 1764.8,1619.29C1760.77,1518.38 1877.68,1482.1 1966.38,1542.57C2004.79,1568.76 1998.99,1680.38 1997.62,1799.52C1995.82,1955.48 1990.57,2124.32 1990.57,2131.18C1990.57,2143.28 2526.76,2135.21 2526.76,2135.21C2526.76,2135.21 2704.15,2122.77 2704.15,2249.94C2704.15,2377.11 2587.24,2340.82 2526.76,2348.88C2466.29,2356.95 2002.66,2348.88 2002.66,2348.88L1986.54,2864.92C1986.54,2864.92 2023.69,3025.18 1882.65,3030.22C1741.62,3035.26 1770.8,2956.67 1769.28,2828.32C1766.94,2630.69 1760.86,2349.89 1760.86,2349.89L1218.43,2339.81C1218.43,2339.81 1121.77,2321.32 1121.77,2249.94C1121.77,2178.55 1138.71,2133.2 1218.43,2128.16C1298.15,2123.12 1764.8,2127.15 1764.8,2127.15ZM694.569,409.709C694.569,409.709 595.653,385.52 591.621,587.097C587.59,788.675 607.748,2249.94 607.748,2249.94C607.748,2249.94 648.064,3372.9 1668.05,3425.31C2688.03,3477.72 3167.78,3296.3 3216.16,1990.08C3264.54,683.855 3208.1,546.782 3208.1,546.782C3208.1,546.782 3204.07,248.447 2974.27,437.93C2744.47,627.413 2252.62,1147.48 2252.62,1147.48C2252.62,1147.48 2010.63,1144.28 1804.51,1148.98C1683.71,1151.74 1575.23,1157.21 1535,1167.64C1426.15,1195.86 841.864,405.678 694.569,409.709Z" style="stroke:black;stroke-width:30px;"/>
    </g>
</svg>
