<?xml version="1.0" encoding="UTF-8" standalone="no"?>
<!DOCTYPE svg PUBLIC "-//W3C//DTD SVG 1.1//EN" "http://www.w3.org/Graphics/SVG/1.1/DTD/svg11.dtd">
<svg width="100%" height="100%" viewBox="0 0 3840 3840" version="1.1" xmlns="http://www.w3.org/2000/svg" xmlns:xlink="http://www.w3.org/1999/xlink" xml:space="preserve" xmlns:serif="http://www.serif.com/" style="fill-rule:evenodd;clip-rule:evenodd;stroke-linecap:round;stroke-linejoin:round;stroke-miterlimit:1.5;">
    <g transform="matrix(1.03743,0,0,1.03743,-115.108,-77.8641)">
        <path d="M418.654,386.895L587.312,1508.97C587.312,1508.97 211.28,3422.4 1920,3463.74C3628.72,3505.08 3439.74,2146.78 3233.04,1573.93C3233.04,1573.93 3043.15,1249.97 3060.86,1244.07C3078.58,1238.16 3251.02,1071.74 3251.02,1071.74L3623.33,915.968L3126.74,599.498L2396.36,830.245C2396.36,830.245 1579.46,717.611 1160.16,912.498L418.654,386.895Z" style="fill:none;stroke:black;stroke-width:154.23px;"/>
        <g transform="matrix(2.04897,0,0,1.55652,-1706.7,-1216.52)">
            <path d="M1295.99,1597.55L1697.57,1816.06L1402.29,2070" style="fill:none;stroke:black;stroke-width:84.76px;"/>
        </g>
        <g transform="matrix(2.1567,0,0,1.70256,-2371.17,-1394.46)">
            <path d="M2364.91,1514.87L2102.29,1750.1L2423.97,1920" style="fill:none;stroke:black;stroke-width:79.38px;"/>
        </g>
        <path d="M1750.72,2123.16L2063.72,2117.25L1920,2306.23L1750.72,2123.16Z" style="fill:none;stroke:black;stroke-width:154.23px;"/>
        <path d="M805.943,2334.74L315.348,2632.87" style="fill:none;stroke:black;stroke-width:154.23px;"/>
        <path d="M805.943,2632.87L398.454,2981.6" style="fill:none;stroke:black;stroke-width:154.23px;"/>
        <g transform="matrix(1.11928,0.103695,0.103695,1.09014,-533.864,-464.098)">
            <path d="M3080.72,2243.07L3576.12,2258.53" style="fill:none;stroke:black;stroke-width:127.62px;"/>
        </g>
        <path d="M3060.86,2632.87L3623.33,2913.29" style="fill:none;stroke:black;stroke-width:154.23px;"/>
        <path d="M1384.57,3100.45L1484.39,2564.8L1961.68,2981.6L2373.68,2483.8L2674.44,2913.29" style="fill:none;stroke:black;stroke-width:154.23px;"/>
    </g>
</svg>
