<?xml version="1.0" encoding="UTF-8" standalone="no"?>
<!DOCTYPE svg PUBLIC "-//W3C//DTD SVG 1.1//EN" "http://www.w3.org/Graphics/SVG/1.1/DTD/svg11.dtd">
<svg width="100%" height="100%" viewBox="0 0 3840 3840" version="1.1" xmlns="http://www.w3.org/2000/svg" xmlns:xlink="http://www.w3.org/1999/xlink" xml:space="preserve" xmlns:serif="http://www.serif.com/" style="fill-rule:evenodd;clip-rule:evenodd;stroke-linecap:round;stroke-linejoin:round;stroke-miterlimit:1.5;">
    <g transform="matrix(1.03743,0,0,1.03743,-115.108,-77.8641)">
        <path d="M418.654,386.895L587.312,1508.97C587.312,1508.97 211.28,3422.4 1920,3463.74C3628.72,3505.08 3439.74,2146.78 3233.04,1573.93C3233.04,1573.93 3073.59,1272.74 3091.31,1266.84C3109.02,1260.93 3315.72,1066.04 3315.72,1066.04L3504.7,1166.44L3126.74,599.498L2447.59,841.63C2447.59,841.63 1579.46,717.611 1160.16,912.498L418.654,386.895Z" style="fill:none;stroke:black;stroke-width:154.23px;"/>
        <path d="M1295.99,1597.55L1697.57,1816.06L1402.29,2070" style="fill:none;stroke:black;stroke-width:154.23px;"/>
        <path d="M2364.91,1514.87L2128.69,1733.38L2423.97,1920" style="fill:none;stroke:black;stroke-width:154.23px;"/>
        <path d="M1750.72,2123.16L2063.72,2117.25L1920,2306.23L1750.72,2123.16Z" style="fill:none;stroke:black;stroke-width:154.23px;"/>
        <path d="M1124.73,2306.23L622.746,2583.8" style="fill:none;stroke:black;stroke-width:154.23px;"/>
        <path d="M1124.73,2583.8L717.237,3038.53" style="fill:none;stroke:black;stroke-width:154.23px;"/>
        <path d="M2742.87,1993.23L3262.57,2445.01" style="fill:none;stroke:black;stroke-width:154.23px;"/>
        <path d="M2878.7,2445.01L3321.63,3038.53" style="fill:none;stroke:black;stroke-width:154.23px;"/>
        <path d="M1384.57,2861.36L1626.71,2530.64L1874.74,2811.16L2134.59,2495.21L2483.02,2811.16" style="fill:none;stroke:black;stroke-width:154.23px;"/>
    </g>
</svg>
