<?xml version="1.0" encoding="UTF-8" standalone="no"?>
<!DOCTYPE svg PUBLIC "-//W3C//DTD SVG 1.1//EN" "http://www.w3.org/Graphics/SVG/1.1/DTD/svg11.dtd">
<svg width="100%" height="100%" viewBox="0 0 3840 3840" version="1.1" xmlns="http://www.w3.org/2000/svg" xmlns:xlink="http://www.w3.org/1999/xlink" xml:space="preserve" xmlns:serif="http://www.serif.com/" style="fill-rule:evenodd;clip-rule:evenodd;stroke-linecap:round;stroke-linejoin:round;stroke-miterlimit:1.5;">
    <g>
        <path d="M364.947,351.757C364.947,351.757 424.004,743.006 357.565,1806.02C291.127,2869.04 881.691,3592.48 2055.44,3585.1C3229.18,3577.72 3576.14,2581.14 3524.47,1724.82C3472.79,868.501 3539.23,211.498 3539.23,211.498C3539.23,211.498 3044.63,484.634 2815.79,838.973C2815.79,838.973 1974.24,425.578 1110.54,779.916C1110.54,779.916 601.173,410.814 364.947,351.757Z" style="fill:none;stroke:black;stroke-width:160px;"/>
        <path d="M1492.98,1710.62C1492.98,1710.62 1329.7,1501.99 1263.18,1665.27C1196.66,1828.55 1529.27,1991.83 1619.98,2043.23C1619.98,2043.23 1792.33,1725.74 1743.95,1641.08C1695.57,1556.41 1550.43,1523.15 1492.98,1710.62Z" style="fill:none;stroke:black;stroke-width:160px;"/>
        <path d="M2505.92,1641.08C2505.92,1641.08 2327.52,1399.77 2254.95,1573.34C2182.39,1746.91 2412.19,1904.14 2530.11,2006.94C2530.11,2006.94 2805.27,1735.4 2772.01,1573.34C2738.74,1411.28 2536.16,1508.04 2505.92,1641.08Z" style="fill:none;stroke:black;stroke-width:160px;"/>
        <path d="M1970.73,2318.38C1970.73,2318.38 2227.18,2285.12 2241.07,2333.5C2254.95,2381.88 2130.98,2563.3 2082.6,2578.42C2034.23,2593.54 1873.97,2324.43 1970.73,2318.38Z" style="fill:none;stroke:black;stroke-width:160px;"/>
        <path d="M1042.45,2527.02C1042.45,2527.02 1051.53,3038.02 1632.07,3013.83" style="fill:none;stroke:black;stroke-width:160px;"/>
    </g>
</svg>
