<?xml version="1.0" encoding="UTF-8" standalone="no"?>
<!DOCTYPE svg PUBLIC "-//W3C//DTD SVG 1.1//EN" "http://www.w3.org/Graphics/SVG/1.1/DTD/svg11.dtd">
<svg width="100%" height="100%" viewBox="0 0 3840 3840" version="1.1" xmlns="http://www.w3.org/2000/svg" xmlns:xlink="http://www.w3.org/1999/xlink" xml:space="preserve" xmlns:serif="http://www.serif.com/" style="fill-rule:evenodd;clip-rule:evenodd;stroke-linecap:round;stroke-linejoin:round;stroke-miterlimit:1.5;">
    <g>
        <path d="M823.684,343.645C823.684,343.645 805.229,1183.35 657.588,1469.41C509.947,1755.46 109.631,3342.61 1920,3554.84C1920,3554.84 3675,3831.67 3398.18,1626.28C3398.18,1626.28 3185.94,594.102 2992.16,219.729C2992.16,219.729 2779.93,528.197 2613.83,814.251C2613.83,814.251 2124.77,555.879 1506.53,740.431C1506.53,740.431 1155.88,334.418 823.684,343.645Z" style="fill:none;stroke:black;stroke-width:160px;"/>
        <path d="M1155.88,1920C1155.88,1920 1229.7,1524.77 1598.8,1773.92" style="fill:none;stroke:black;stroke-width:160px;"/>
        <path d="M2143.23,1805.76C2143.23,1805.76 2097.09,1304.59 2466.19,1691.51" style="fill:none;stroke:black;stroke-width:160px;"/>
        <path d="M1598.8,2678.22L2303.79,2253.75C2303.79,2253.75 2300.1,3407.2 1598.8,2678.22Z" style="fill:none;stroke:black;stroke-width:160px;"/>
    </g>
</svg>
