<?xml version="1.0" encoding="UTF-8" standalone="no"?>
<!DOCTYPE svg PUBLIC "-//W3C//DTD SVG 1.1//EN" "http://www.w3.org/Graphics/SVG/1.1/DTD/svg11.dtd">
<svg width="100%" height="100%" viewBox="0 0 3840 3840" version="1.1" xmlns="http://www.w3.org/2000/svg" xmlns:xlink="http://www.w3.org/1999/xlink" xml:space="preserve" xmlns:serif="http://www.serif.com/" style="fill-rule:evenodd;clip-rule:evenodd;stroke-linecap:round;stroke-linejoin:round;stroke-miterlimit:1.5;">
    <g>
        <g transform="matrix(1,0,0,1,-19.6967,187.644)">
            <path d="M1491.31,94.973C1491.31,94.973 1362.17,460.901 1377.92,628.842C1377.92,628.842 1349.45,705.765 1336.58,815.267C1336.4,816.731 1499.51,635.451 1621.77,651.858C1762.33,670.721 1970.43,868.595 1970.25,870.306C1970.04,872.236 1809.96,1096.82 1584.31,1087.65C1533.16,1085.58 1456.02,1035.37 1413.44,991.264C1351.96,927.589 1334.49,834.802 1334.39,835.837C1323.51,950.117 1331.24,1094.74 1402.76,1224.26C1423.77,1262.3 1202.22,1571.72 1207.84,1616.26C1207.84,1616.26 827.206,2037.67 939.57,2138.78C1051.93,2239.9 1415.72,2112.34 1477.14,2197.38C1538.56,2282.42 1680.29,2684 1817.3,2613.13C1954.31,2542.26 2002.73,2311.69 1893.48,2138.78C1784.23,1965.88 1637.77,1944.99 1576.35,1920C1514.93,1895.01 2157.47,1920 2157.47,1920C2157.47,1920 1864.55,2165.27 1992.11,2410.46C1992.11,2410.46 2270.86,2703.83 2422.04,2138.78C2422.04,2138.78 3249.12,2022.57 2847.39,1753.27L2611.02,1597.37C2611.02,1597.37 2477.14,1285.12 2480.28,1282.62C2599.89,1187.16 2674.95,1144.05 2697.8,926.969C2698.12,923.953 2593.04,1098.23 2395.54,1086.08C2192.77,1073.61 2090.53,878.876 2091.21,875.121C2096.67,844.836 2332.5,677.458 2516.03,719.119C2619.05,742.506 2709.42,865.195 2697.8,926.969C2697.8,926.969 2706.25,762.035 2707.55,754.997C2720.25,686.529 2786.59,313.263 2748.03,184.739L2209.44,567.424L1893.48,534.352L1491.31,94.973Z" style="stroke:black;stroke-width:130px;"/>
        </g>
        <g transform="matrix(1,0,0,1,-19.6967,187.644)">
            <path d="M1235.59,1547.61C1235.59,1547.61 386.133,1648.64 226.006,2454.58L277.537,2521.61C277.537,2521.61 159.613,2615.34 283.584,2724.19C283.584,2724.19 204.968,2878.4 407.555,2911.66C407.555,2911.66 328.939,3183.79 522.455,3041.68C522.455,3041.68 743.183,3348.81 1423.51,3361.55C2103.84,3374.28 2588.59,3377.31 2847.39,3331.95C3106.19,3286.6 3372.27,3150.53 3466.01,2975.16C3466.01,2975.16 3659.52,3053.77 3535.55,2793.74C3535.55,2793.74 3586.95,2562.92 3593,2454.58C3593,2454.58 3747.21,2328.09 3562.76,2279.71C3562.76,2279.71 3505.32,1477.7 2616.35,1547.61" style="fill:none;stroke:black;stroke-width:160px;"/>
        </g>
        <g transform="matrix(1,0,0,1,-19.6967,187.644)">
            <path d="M1592.02,1040.34L1622.26,685.056" style="fill:none;stroke:black;stroke-width:130px;"/>
        </g>
        <g transform="matrix(1,0,0,1,796.696,236.779)">
            <path d="M1592.02,1040.34L1622.26,685.056" style="fill:none;stroke:black;stroke-width:130px;"/>
        </g>
        <path d="M2873.32,1730.94C2873.32,1730.94 3370.34,874.437 3303.25,624.983C3303.25,624.983 3028.28,428.444 3188.91,362.301C3349.55,296.158 3424.82,376.804 3454.43,502.146C3487.97,644.114 2953.18,1768.77 2873.32,1730.94Z" style="stroke:black;stroke-width:130px;"/>
    </g>
</svg>
