<?xml version="1.0" encoding="UTF-8" standalone="no"?>
<!DOCTYPE svg PUBLIC "-//W3C//DTD SVG 1.1//EN" "http://www.w3.org/Graphics/SVG/1.1/DTD/svg11.dtd">
<svg width="100%" height="100%" viewBox="0 0 3840 3840" version="1.1" xmlns="http://www.w3.org/2000/svg" xmlns:xlink="http://www.w3.org/1999/xlink" xml:space="preserve" xmlns:serif="http://www.serif.com/" style="fill-rule:evenodd;clip-rule:evenodd;stroke-linecap:round;stroke-linejoin:round;stroke-miterlimit:1.5;">
    <g transform="matrix(1,0,0,1,0,195)">
        <g transform="matrix(0.914048,0,0,0.889763,222.469,272.044)">
            <path d="M1042.76,1920C1042.76,1920 507.559,2060.28 978.164,2263.29C1350.54,2423.92 2029.14,2440.12 2433.34,2343.88C2486.44,2331.23 2624.13,2340.43 2666.45,2323.98C2709.09,2307.4 2656.26,2265.13 2685.26,2244.83C2825.36,2146.76 2885.1,2055.78 2869.27,1977.87C2859.69,1930.73 2729.82,1925.76 2665.96,1889.51C2626.82,1867.3 2670.32,1810 2611.44,1792.68" style="fill:none;stroke:black;stroke-width:177.39px;"/>
        </g>
        <g transform="matrix(0.914048,0,0,0.889763,222.469,272.044)">
            <path d="M673.655,1580.45C673.655,1580.45 123.433,1759.08 38.67,2403.36C34.37,2436.04 32.236,2468.03 32.097,2499.33C31.91,2541.5 -1.914,2592.85 4.734,2632.47C11.138,2670.62 57.782,2697.14 69.774,2732.87C83.068,2772.47 64.001,2852.33 83.207,2888.88C103.002,2926.55 161.238,2920.82 186.229,2955.17C205.302,2981.39 195.242,3079.7 216.777,3103.94C236.675,3126.34 288.007,3074.81 309.606,3095.49C536.176,3312.44 845.628,3434.15 1015.07,3444.41C1319.58,3462.87 2611.44,3527.46 3137.41,3361.37C3348.32,3294.76 3501.37,3151.88 3590.6,2963.68C3598.51,2947 3668.35,3002.12 3675.25,2984.76C3684.07,2962.55 3629.63,2867.64 3636.79,2844.38C3674.06,2723.36 3688.73,2588.76 3679.58,2446.91C3677.1,2408.54 3737.92,2391.92 3731.93,2352.62C3727.72,2325 3657.61,2274.91 3651.65,2246.94C3628.74,2139.44 3592.82,2029.64 3543.42,1920C3257.37,1285.17 2648.35,1497.4 2030.1,1497.4C1926.62,1497.4 1811.87,1476.76 1703.5,1462.75C1672.37,1458.73 1660.41,1436.11 1630.75,1433.83C1599.16,1431.4 1550.01,1449.46 1521.07,1450.52C1106.68,1465.68 802.223,1553.38 673.655,1580.45Z" style="fill:none;stroke:black;stroke-width:177.39px;"/>
        </g>
    </g>
</svg>
