<?xml version="1.0" encoding="UTF-8" standalone="no"?>
<!DOCTYPE svg PUBLIC "-//W3C//DTD SVG 1.1//EN" "http://www.w3.org/Graphics/SVG/1.1/DTD/svg11.dtd">
<svg width="100%" height="100%" viewBox="0 0 3840 3840" version="1.1" xmlns="http://www.w3.org/2000/svg" xmlns:xlink="http://www.w3.org/1999/xlink" xml:space="preserve" xmlns:serif="http://www.serif.com/" style="fill-rule:evenodd;clip-rule:evenodd;stroke-linecap:round;stroke-linejoin:round;stroke-miterlimit:1.5;">
    <g transform="matrix(1.17599,0.0539908,-0.0532285,1.15938,-367.585,-825.152)">
        <path d="M1526.7,3364.76C1526.7,3364.76 1646.83,2570.61 2307.51,2824.21C2307.51,2824.21 2654.53,3584.99 1526.7,3364.76ZM2601.14,2774.24C2601.14,2774.24 2617.16,1923.28 3490.06,2457.16C3490.06,2457.16 3288.52,3264.83 2601.14,2774.24ZM2856.49,2307.91L3275.2,2774.24M1942.29,2850.9L2280.81,3264.66M1580.09,3019.45L1213.04,2281.15C1213.04,2281.15 1813.66,2490.53 1867.05,2517.22C1920.44,2543.92 2420.96,2417.12 2420.96,2417.12C2420.96,2417.12 2970.21,1656.34 2995.89,1683.03C3021.58,1709.72 3135.29,2281.15 3135.29,2281.15M1887.07,3458.19C1887.07,3458.19 3335.23,4459.23 3328.56,2850.9" style="fill:none;stroke:black;stroke-width:180.63px;"/>
    </g>
    <g transform="matrix(0.890883,0,0,0.890883,425.31,-230.76)">
        <g transform="matrix(2.06646,-0.591495,0.467415,1.63297,-3199.86,556.21)">
            <path d="M1604.38,1045.16C1604.38,1045.16 1542.18,926.631 1574.24,842.946C1600.91,773.322 1702.76,685.463 1853.68,674.214C2186.01,649.445 2142.36,860.226 1993.74,992.331C1845.12,1124.44 1507.15,1335.98 1923.37,1530.13" style="fill:none;stroke:black;stroke-width:162.94px;"/>
        </g>
        <g transform="matrix(1,0,0,1,-1356.37,383.221)">
            <path d="M3209.21,1841.33C3209.21,1841.33 3219.78,1868.81 3235.63,1851.9" style="fill:none;stroke:black;stroke-width:349.32px;"/>
        </g>
    </g>
</svg>
