<?xml version="1.0" encoding="UTF-8" standalone="no"?>
<!DOCTYPE svg PUBLIC "-//W3C//DTD SVG 1.1//EN" "http://www.w3.org/Graphics/SVG/1.1/DTD/svg11.dtd">
<svg width="100%" height="100%" viewBox="0 0 3840 3840" version="1.1" xmlns="http://www.w3.org/2000/svg" xmlns:xlink="http://www.w3.org/1999/xlink" xml:space="preserve" xmlns:serif="http://www.serif.com/" style="fill-rule:evenodd;clip-rule:evenodd;stroke-linecap:round;stroke-linejoin:round;stroke-miterlimit:1.5;">
    <g>
        <path d="M370.749,449.329C370.749,449.329 455.857,1252.5 485.386,1719.04C485.386,1719.04 184.198,3555.7 1772.82,3473.02C3361.43,3390.34 3579.94,2711.19 3390.96,1630.46C3390.96,1630.46 3326,691.461 3331.91,390.273C3331.91,390.273 2888.98,626.499 2505.12,880.441C2505.12,880.441 1713.76,608.782 1099.57,957.214C1099.57,957.214 498.244,567.442 370.749,449.329Z" style="fill:none;stroke:black;stroke-width:120px;"/>
        <path d="M1070.04,1933C1070.04,1933 1560.21,2038.28 1684.23,1920" style="fill:none;stroke:black;stroke-width:120px;"/>
        <path d="M2198.02,1920C2198.02,1920 2440.15,2070.82 2753.15,1948.08" style="fill:none;stroke:black;stroke-width:120px;"/>
        <path d="M1843.68,2327.32C1843.68,2327.32 1997.23,2262.36 2074,2285.98C2150.78,2309.61 2115.34,2469.06 2009.04,2498.59C1902.74,2528.12 1820.06,2410 1843.68,2327.32Z" style="fill:none;stroke:black;stroke-width:120px;"/>
        <path d="M1471.63,2988.76C1471.63,2988.76 1949.99,2917.89 2310.23,2953.32" style="fill:none;stroke:black;stroke-width:120px;"/>
        <path d="M2198.02,1488.72L2387,1364.7L2310.23,1713.14L2753.15,1571.4" style="fill:none;stroke:black;stroke-width:120px;"/>
        <path d="M2640.95,992.648L3048.43,815.479L2930.32,1364.7L3213.79,1299.74" style="fill:none;stroke:black;stroke-width:120px;"/>
    </g>
</svg>
