<?xml version="1.0" encoding="UTF-8" standalone="no"?>
<!DOCTYPE svg PUBLIC "-//W3C//DTD SVG 1.1//EN" "http://www.w3.org/Graphics/SVG/1.1/DTD/svg11.dtd">
<svg width="100%" height="100%" viewBox="0 0 2160 2160" version="1.1" xmlns="http://www.w3.org/2000/svg" xmlns:xlink="http://www.w3.org/1999/xlink" xml:space="preserve" xmlns:serif="http://www.serif.com/" style="fill-rule:evenodd;clip-rule:evenodd;stroke-linecap:round;stroke-linejoin:round;stroke-miterlimit:1.5;">
    <g transform="matrix(1,0,0,1,-12,0)">
        <path d="M201.273,881.757C201.273,881.757 473.215,445.053 657.811,121.958C657.811,121.958 933.128,643.437 1092,687.065" style="fill:none;stroke:black;stroke-width:140px;"/>
    </g>
    <g transform="matrix(1.51078,0,0,0.994204,-249.278,0.527991)">
        <path d="M585.071,189.411C585.071,189.411 598.223,828.929 503.701,1199.89C362.534,1753.93 471.729,1963.85 879.861,1855.97" style="fill:none;stroke:black;stroke-width:109.47px;"/>
    </g>
    <g transform="matrix(0.881916,0,0,0.849348,324.711,305.077)">
        <path d="M1268.4,522.431C1268.4,522.431 925.958,1098.65 1377.06,1240.24C1377.06,1240.24 1903.88,1289.63 1801.81,634.382L1535.11,749.626C1535.11,749.626 1251.93,571.821 1268.4,522.431Z" style="fill:none;stroke:black;stroke-width:161.7px;"/>
    </g>
    <g transform="matrix(0.881916,0,0,0.849348,324.711,305.077)">
        <path d="M1192.47,1111.11C1192.47,1111.11 751.446,1019.57 879.861,1862.52C879.861,1862.52 1180.14,2164.66 1143.92,1693.8L1143.92,1988.5L1080,1960.4" style="fill:none;stroke:black;stroke-width:161.7px;"/>
    </g>
    <g transform="matrix(0.881916,0,0,0.849348,324.711,305.077)">
        <path d="M1479.43,1241.08C1479.43,1241.08 1525.23,1908.65 1620.71,1977.8C1620.71,1977.8 1691.4,2162.33 1479.43,1635.54C1466,1602.15 1325.92,1635.6 1311.2,1595.68L1416.57,1960.41C1416.57,1960.41 1327.66,2235.94 1319.43,1649.19" style="fill:none;stroke:black;stroke-width:161.7px;"/>
    </g>
    <g transform="matrix(0.881916,0,0,0.849348,324.711,305.077)">
        <path d="M1182.73,816.138C1182.73,816.138 1345.45,798.328 1358.62,926.757" style="fill:none;stroke:black;stroke-width:161.7px;"/>
    </g>
    <g transform="matrix(0.881916,0,0,0.849348,324.711,305.077)">
        <path d="M1536.42,978.681C1536.42,978.681 1682.62,927.431 1722.13,1045.97" style="fill:none;stroke:black;stroke-width:161.7px;"/>
    </g>
</svg>
