<?xml version="1.0" encoding="UTF-8" standalone="no"?>
<!DOCTYPE svg PUBLIC "-//W3C//DTD SVG 1.1//EN" "http://www.w3.org/Graphics/SVG/1.1/DTD/svg11.dtd">
<svg width="100%" height="100%" viewBox="0 0 3840 3840" version="1.1" xmlns="http://www.w3.org/2000/svg" xmlns:xlink="http://www.w3.org/1999/xlink" xml:space="preserve" xmlns:serif="http://www.serif.com/" style="fill-rule:evenodd;clip-rule:evenodd;stroke-linecap:round;stroke-linejoin:round;stroke-miterlimit:1.5;">
    <g>
        <g transform="matrix(0.537398,0,0,0.537398,622.681,1370.67)">
            <g>
                <g transform="matrix(1.32603,0.264479,-0.271764,1.36256,-801.703,-1238.21)">
                    <path d="M387.457,1291.48C387.457,1291.48 1322.51,3220.63 1332.35,3397.8L2995.75,3447.01C2995.75,3447.01 2483.94,1793.45 2513.46,1340.69C2513.46,1340.69 554.781,1065.1 387.457,1291.48Z" style="fill:none;stroke:black;stroke-width:286.61px;"/>
                </g>
                <g transform="matrix(1.32603,0.264479,-0.271764,1.36256,-801.703,-1238.21)">
                    <path d="M1027.23,1665.5C1027.23,1665.5 1962.28,1813.14 2129.6,1754.08" style="fill:none;stroke:black;stroke-width:286.61px;"/>
                </g>
                <g transform="matrix(1.32603,0.264479,-0.271764,1.36256,-801.703,-1238.21)">
                    <path d="M1253.61,2324.61C1253.61,2324.61 1942.59,2284.9 2129.6,2324.61" style="fill:none;stroke:black;stroke-width:286.61px;"/>
                </g>
                <g transform="matrix(-1.34681,0.192564,0.192773,1.34827,5946.02,-1015.02)">
                    <path d="M387.457,1291.48C387.457,1291.48 1322.51,3220.63 1332.35,3397.8L2995.75,3447.01C2995.75,3447.01 2483.94,1793.45 2513.46,1340.69C2513.46,1340.69 554.781,1065.1 387.457,1291.48Z" style="fill:none;stroke:black;stroke-width:288.64px;"/>
                </g>
                <g transform="matrix(-1.34681,0.192564,0.192773,1.34827,5946.02,-1015.02)">
                    <path d="M1027.23,1665.5C1027.23,1665.5 1962.28,1813.14 2129.6,1754.08" style="fill:none;stroke:black;stroke-width:288.64px;"/>
                </g>
                <g transform="matrix(-1.34681,0.192564,0.192773,1.34827,5946.02,-1015.02)">
                    <path d="M1253.61,2324.61C1253.61,2324.61 1942.59,2284.9 2129.6,2324.61" style="fill:none;stroke:black;stroke-width:288.64px;"/>
                </g>
                <g transform="matrix(-1.34681,0.192564,0.192773,1.34827,5946.02,-1015.02)">
                    <path d="M1578.41,2925.35C1578.41,2925.35 2375.67,2945.04 2474.09,2895.83" style="fill:none;stroke:black;stroke-width:288.64px;"/>
                </g>
                <g transform="matrix(1.86082,0,0,1.86082,-1158.7,-2550.58)">
                    <path d="M1778.13,2068.14C1778.13,2068.14 1991,2032.66 2100.66,2058.46" style="fill:none;stroke:black;stroke-width:211.15px;"/>
                </g>
                <g transform="matrix(1.86082,0,0,1.86082,-1158.7,-2550.58)">
                    <path d="M1836.19,3693.65C1836.19,3693.65 1932.52,3729.13 2006.91,3677.53" style="fill:none;stroke:black;stroke-width:211.15px;"/>
                </g>
            </g>
        </g>
        <g transform="matrix(0.996851,0.0792971,-0.0792971,0.996851,-375.496,-191.38)">
            <g transform="matrix(0.863098,0,0,0.90205,351.828,240.792)">
                <path d="M1696.48,1587.91C1723.22,1600.87 1890.3,1806.1 1895.71,1796.31C1897.14,1793.72 2107.82,1892.57 2181.87,1928.51C2239.22,1956.34 2299.07,1979.7 2359.95,1995.25C2497.28,2030.33 2661.3,1964.14 2778.93,1920C2997.84,1837.85 3173.46,1632.94 3235.24,1335.39C3237.62,1323.92 3239.83,1312.31 3241.87,1300.56C3242.36,1297.75 3236.35,1277.29 3149.81,1267.29C3084.72,1259.77 2879.34,1213.76 2857.99,1204.7C2707.64,1140.91 2618.56,1033.29 2619.24,1028.6C2644.33,857.648 2830.15,753.613 2983.63,661.459C2996.04,654.008 3042.18,630.673 3089.33,617.05C3135.04,603.842 3182.06,600.536 3177.71,581.214C3175.69,572.276 3173.65,563.08 3171.57,553.655C3115.29,298.112 3037.82,-125.788 3037.82,-125.788L2631.58,445.013L2021.33,563.124L1470.14,139.891C1470.14,139.891 1463.84,427.565 1521.11,741.494C1523.57,754.939 1542.93,889.152 1550.75,900.298C1572.39,931.131 1635.25,913.476 1784.77,949.008C1840.13,962.164 1921.44,975.916 1965.53,998.984C1989.51,1011.53 2104.79,1052.86 2122.95,1063.53C2135.48,1070.9 2137.03,1158.84 2048.15,1296.71C1962.16,1430.09 1692.12,1584.32 1696.48,1587.91Z" style="stroke:black;stroke-width:239.19px;"/>
            </g>
            <path d="M3083.44,797.402L3149.9,1330.18" style="fill:none;stroke:black;stroke-width:211.15px;"/>
            <path d="M1658.36,1079.67L1716.42,1637.24" style="fill:none;stroke:black;stroke-width:211.15px;"/>
            <g transform="matrix(1,0,0,1,-105.828,2.63002)">
                <path d="M1676.36,1079.67C1676.36,1079.67 2128.71,1045.11 2289.97,1226.53C2289.97,1226.53 2249.65,1599.44 1826.34,1637.24C1403.03,1675.04 1302.24,1453.31 1302.24,1453.31C1302.24,1453.31 1328.64,1245.25 1676.36,1079.67Z" style="fill:none;stroke:black;stroke-width:211.15px;"/>
            </g>
            <g transform="matrix(1,0,0,1,1310.25,-279.639)">
                <path d="M1676.36,1079.67C1676.36,1079.67 2128.71,1045.11 2289.97,1226.53C2289.97,1226.53 2249.65,1599.44 1826.34,1637.24C1403.03,1675.04 1302.24,1453.31 1302.24,1453.31C1302.24,1453.31 1328.64,1245.25 1676.36,1079.67Z" style="fill:none;stroke:black;stroke-width:211.15px;"/>
            </g>
        </g>
    </g>
</svg>
