<?xml version="1.0" encoding="UTF-8" standalone="no"?>
<!DOCTYPE svg PUBLIC "-//W3C//DTD SVG 1.1//EN" "http://www.w3.org/Graphics/SVG/1.1/DTD/svg11.dtd">
<svg width="100%" height="100%" viewBox="0 0 3840 3840" version="1.1" xmlns="http://www.w3.org/2000/svg" xmlns:xlink="http://www.w3.org/1999/xlink" xml:space="preserve" xmlns:serif="http://www.serif.com/" style="fill-rule:evenodd;clip-rule:evenodd;stroke-linecap:round;stroke-linejoin:round;stroke-miterlimit:1.5;">
    <g>
        <path d="M634.704,178.287C634.704,178.287 563.098,681.375 657.588,1469.41C659.361,1484.19 643.389,1498.66 635.723,1517.19C477.643,1899.35 193.371,3352.42 1920,3554.84C1920,3554.84 3675,3831.67 3398.18,1626.28C3398.18,1626.28 3445.79,505.517 3252.01,131.145C3252.01,131.145 2768.12,551.819 2602.02,837.874C2602.02,837.874 2083.43,691.709 1465.18,876.26C1465.18,876.26 966.897,169.06 634.704,178.287Z" style="fill:none;stroke:black;stroke-width:160px;"/>
        <g transform="matrix(1.48,0,0,1.82708,-879.63,-1450.7)">
            <path d="M1155.88,1920C1155.88,1920 1229.7,1524.77 1598.8,1773.92" style="fill:none;stroke:black;stroke-width:96.23px;"/>
        </g>
        <g transform="matrix(1.9283,0.530705,-0.381557,1.38637,-1071.22,-1936.83)">
            <path d="M2143.23,1805.76C2143.23,1805.76 2097.09,1304.59 2466.19,1691.51" style="fill:none;stroke:black;stroke-width:91.86px;"/>
        </g>
        <g transform="matrix(2.61389,0.239864,-0.120059,1.30833,-2833.16,-1443.94)">
            <path d="M1598.8,2678.22C1884.19,2719.24 2126.66,2602.15 2303.79,2253.75C2303.79,2253.75 2300.1,3407.2 1598.8,2678.22Z" style="fill:none;stroke:black;stroke-width:77.09px;"/>
        </g>
        <g transform="matrix(1,0,0,1,-24.1883,-56.9766)">
            <path d="M1755.42,2008.59L2133.38,1920C2133.38,1920 2127.47,2078.54 2056.6,2155.32C1985.74,2232.09 1743.61,2056.74 1755.42,2008.59Z" style="fill:none;stroke:black;stroke-width:200px;"/>
        </g>
    </g>
</svg>
