<?xml version="1.0" encoding="UTF-8" standalone="no"?>
<!DOCTYPE svg PUBLIC "-//W3C//DTD SVG 1.1//EN" "http://www.w3.org/Graphics/SVG/1.1/DTD/svg11.dtd">
<svg width="100%" height="100%" viewBox="0 0 3840 3840" version="1.1" xmlns="http://www.w3.org/2000/svg" xmlns:xlink="http://www.w3.org/1999/xlink" xml:space="preserve" xmlns:serif="http://www.serif.com/" style="fill-rule:evenodd;clip-rule:evenodd;stroke-linecap:round;stroke-linejoin:round;stroke-miterlimit:1.5;">
    <g id="Settings">
        <g transform="matrix(1,0,0,1,45.5313,124.914)">
            <path d="M527.395,715.851C527.395,715.851 3517.11,632.803 3517.11,678.94C3517.11,707.07 2486.24,679.349 1645.97,701.456C1108.06,715.608 644.063,730.875 592.431,734.563C460.145,744.012 226.135,714.005 527.395,715.851Z" style="fill:none;stroke:black;stroke-width:160px;"/>
        </g>
        <g transform="matrix(1,0,0,1,45.5313,111.914)">
            <path d="M380.422,1804.33C406,1800.32 632.81,1829.77 941.904,1834.95C1635.44,1846.59 2743.23,1845 2921.61,1842.12C3214.53,1837.4 3436.58,1804.33 3455.47,1837.4C3474.37,1870.47 857.985,1891.97 696.37,1878C342.033,1847.37 229.831,1827.95 380.422,1804.33Z" style="fill:none;stroke:black;stroke-width:160px;"/>
        </g>
        <g transform="matrix(1,0,0,1,45.5313,124.914)">
            <path d="M380.422,2897.75C380.422,2897.75 3359.61,2866.16 3455.58,2880.92C3551.54,2895.69 2875.54,2880.77 1295.2,2912.96C880.248,2921.41 -150.491,2942.05 380.422,2897.75Z" style="fill:none;stroke:black;stroke-width:160px;"/>
        </g>
        <g transform="matrix(0.817054,0,0,0.937667,114.598,56.2356)">
            <path d="M502.941,424.415C502.941,424.415 318.496,1243.83 762.977,1246.86C1207.46,1249.88 1198.39,527.22 1207.46,394.179L835.545,657.238L502.941,424.415Z" style="stroke:black;stroke-width:147.82px;"/>
        </g>
        <g transform="matrix(0.724825,0,0,0.780866,955.416,425.498)">
            <path d="M2723.04,1396.06C2723.04,1396.06 2475.79,2397.5 3020.05,2421.68C3564.31,2445.88 3500.28,1558.12 3501.11,1369.45L3090.72,1717.77L2723.04,1396.06Z" style="stroke:black;stroke-width:172.56px;"/>
        </g>
        <g transform="matrix(0.88579,0,0,0.910111,405.027,256.253)">
            <path d="M958.656,2482.85C958.656,2482.85 754.18,3348.19 1150.28,3375.4C1546.38,3402.62 1566.79,2840.02 1609.12,2537.66L1207.46,2782.57L958.656,2482.85Z" style="stroke:black;stroke-width:144.76px;"/>
        </g>
    </g>
</svg>
