<?xml version="1.0" encoding="UTF-8" standalone="no"?>
<!DOCTYPE svg PUBLIC "-//W3C//DTD SVG 1.1//EN" "http://www.w3.org/Graphics/SVG/1.1/DTD/svg11.dtd">
<svg width="100%" height="100%" viewBox="0 0 3840 3840" version="1.1" xmlns="http://www.w3.org/2000/svg" xmlns:xlink="http://www.w3.org/1999/xlink" xml:space="preserve" xmlns:serif="http://www.serif.com/" style="fill-rule:evenodd;clip-rule:evenodd;stroke-linecap:round;stroke-linejoin:round;stroke-miterlimit:1.5;">
    <path d="M517.577,401.334C517.577,401.334 -98.875,3447.48 1745.95,3501.8C2230.5,3516.07 2458.7,3441.36 2602.27,3402.25C2634.5,3393.47 4279.48,2939.38 3163.31,324.561C3163.31,324.561 2744.01,833.834 2738.1,940.136C2738.1,940.136 2041.23,514.929 1125.86,969.664C1125.86,969.664 576.633,411.757 517.577,401.334Z" style="fill:none;stroke:black;stroke-width:160px;"/>
    <g transform="matrix(1.22482,0.00481967,-0.00399664,1.01566,-522.037,-154.166)">
        <path d="M1486.1,1629.75L1486.1,2094.48" style="fill:none;stroke:black;stroke-width:142.21px;"/>
    </g>
    <g transform="matrix(1.22482,0.00169121,0.00166681,1.00876,-532.357,-157.104)">
        <path d="M2627.99,1581.35L2624.12,2048.8" style="fill:none;stroke:black;stroke-width:142.39px;"/>
    </g>
    <g transform="matrix(1.22483,0,0,1.20717,-529.535,-492.96)">
        <path d="M1119.95,1914.47C1119.95,1914.47 1468.39,1324 1852.25,1843.7C1852.25,1843.7 1616.03,2357.3 1119.95,1914.47Z" style="fill:none;stroke:black;stroke-width:98.68px;"/>
    </g>
    <g transform="matrix(1.22483,0,0,1.20717,-529.535,-492.96)">
        <path d="M2324.71,1862.11C2324.71,1862.11 2643.61,1276.76 2879.84,1796.45C2879.84,1796.45 2714.48,2317.54 2324.71,1862.11Z" style="fill:none;stroke:black;stroke-width:98.68px;"/>
    </g>
    <g transform="matrix(1.14384,0,0,1.15252,-316.185,-261.641)">
        <path d="M1580.59,2629.15C1580.59,2629.15 2041.23,3432.32 2442.82,2652.77" style="fill:none;stroke:black;stroke-width:139.35px;"/>
    </g>
    <g transform="matrix(1.14384,0,0,1.15252,-316.185,-261.641)">
        <path d="M2011.71,2990.81L2011.71,2434.26" style="fill:none;stroke:black;stroke-width:139.35px;"/>
    </g>
    <g transform="matrix(1.14384,0,0,1.15252,-316.185,-261.641)">
        <path d="M1852.25,2286.62C1852.25,2286.62 1952.65,2428.36 2011.71,2434.26C2070.76,2440.17 2182.97,2280.72 2188.88,2239.38C2194.78,2198.04 1799.1,2221.66 1852.25,2286.62Z" style="fill:none;stroke:black;stroke-width:139.35px;"/>
    </g>
</svg>
