<?xml version="1.0" encoding="UTF-8" standalone="no"?>
<!DOCTYPE svg PUBLIC "-//W3C//DTD SVG 1.1//EN" "http://www.w3.org/Graphics/SVG/1.1/DTD/svg11.dtd">
<svg width="100%" height="100%" viewBox="0 0 3840 3840" version="1.1" xmlns="http://www.w3.org/2000/svg" xmlns:xlink="http://www.w3.org/1999/xlink" xml:space="preserve" xmlns:serif="http://www.serif.com/" style="fill-rule:evenodd;clip-rule:evenodd;stroke-linecap:round;stroke-linejoin:round;stroke-miterlimit:1.5;">
    <g transform="matrix(0.874326,0,0,0.874326,266.754,288.705)">
        <g transform="matrix(1,0,0,1,191.935,0)">
            <g transform="matrix(1.30081,0.203045,-0.191332,1.22578,-325.365,-144.973)">
                <path d="M541.84,1682.06C541.84,1682.06 1330.55,2053.66 1611.39,1625.52C1611.39,1625.52 1079.04,1192.83 541.84,1682.06Z" style="fill:none;stroke:black;stroke-width:189.11px;"/>
            </g>
            <g transform="matrix(1,0,0,1,-196.025,10.5894)">
                <path d="M994.54,1920L1017.22,2250.52" style="fill:none;stroke:black;stroke-width:241.9px;"/>
            </g>
        </g>
        <g transform="matrix(1.14242,0,0,1.07565,-279.138,278.43)">
            <path d="M675.761,1453.14C692.841,1489.42 654.354,89.352 684.813,-22.586C684.813,-22.586 1475.41,819.329 1491.49,814.773C1600.31,783.924 1956.83,754.888 2261.01,782.506C2281.58,784.374 3080.7,-56.15 3080.7,-56.15C3084.51,-68.501 3094.79,1455.98 3091.47,1453.14" style="fill:none;stroke:black;stroke-width:218.02px;"/>
        </g>
        <g transform="matrix(1,0,0,1,-236.227,0)">
            <g transform="matrix(1.30724,-0.292024,0.293195,1.31249,-975.644,637.322)">
                <path d="M2280.44,1781.01C2280.44,1781.01 3340.57,2071.43 3197.84,1816.57C3072,1591.88 2380.66,1345.43 2280.44,1781.01Z" style="fill:none;stroke:black;stroke-width:180.24px;"/>
            </g>
            <g transform="matrix(1,0,0,1,344.335,-56.625)">
                <path d="M2788.93,2001.15L2803.69,2303.79" style="fill:none;stroke:black;stroke-width:241.9px;"/>
            </g>
        </g>
        <path d="M492.861,2243.14C539.03,2476.91 623.092,3525.23 1995.18,3513.5C3215.55,3503.06 3230.24,2486.45 3246.52,2311.16" style="fill:none;stroke:black;stroke-width:241.9px;"/>
    </g>
</svg>
