<?xml version="1.0" encoding="UTF-8" standalone="no"?>
<!DOCTYPE svg PUBLIC "-//W3C//DTD SVG 1.1//EN" "http://www.w3.org/Graphics/SVG/1.1/DTD/svg11.dtd">
<svg width="100%" height="100%" viewBox="0 0 3840 3840" version="1.1" xmlns="http://www.w3.org/2000/svg" xmlns:xlink="http://www.w3.org/1999/xlink" xml:space="preserve" xmlns:serif="http://www.serif.com/" style="fill-rule:evenodd;clip-rule:evenodd;stroke-linecap:round;stroke-linejoin:round;stroke-miterlimit:1.5;">
    <g transform="matrix(1,0,0,1,42.8717,-30.4756)">
        <path d="M694.569,479.266C694.569,479.266 656.126,1166.97 675.771,1916.11C675.792,1916.92 531.869,2011.73 539.416,2007.72C552.321,2000.87 536.862,2002.04 552.443,1992.56C679.744,1915.15 919.422,1752.75 1101.87,1719.26C1329.41,1677.49 1754.77,1777.44 1809.43,2220.41C1817.43,2285.18 1440.56,2422.45 1184.22,2414.73C1012.58,2409.57 802.339,2293.08 710.883,2201.03C701.339,2191.42 547.176,2016.49 539.416,2007.72C520.415,1986.26 656.555,2139.35 656.7,2140.46C714.841,2586.61 848.328,2934.54 1152.56,3166.12C1976.87,3793.6 2899.63,3092.3 2973.45,2898.52C3016.96,2784.32 3077.66,2692.02 3109.14,2166.09C3109.14,2166.07 3165.2,2109.24 3202.79,2058.93C3233.97,2017.21 3248.03,1979.99 3246.82,1983.4C3215.2,2072.66 2961.67,2385.8 2621.13,2396.21C2289.11,2406.36 2021.74,2275.76 2010.59,2196.85C2010.15,2193.76 2109.75,1762.2 2572.84,1720.23C2911.14,1689.57 3202.69,1914.5 3246.82,1983.4C3249.66,1987.84 3221.61,1953.06 3190.2,1924.89C3159.31,1897.19 3125.09,1876.13 3125.1,1876.01C3145.51,1512.93 3140.46,1114.16 3111.24,479.266L2270.19,1269.34C2270.19,1269.34 1635.45,1213.98 1469.35,1287.8L694.569,479.266Z" style="stroke:black;stroke-width:150px;"/>
    </g>
    <g transform="matrix(1,0,0,1,42.8717,-30.4756)">
        <path d="M1210.75,1815.16L1213.75,2414.73" style="fill:none;stroke:black;stroke-width:220px;"/>
    </g>
    <g transform="matrix(1,0,0,1,42.8717,-30.4756)">
        <path d="M2631.09,1815.16L2633.68,2302.71" style="fill:none;stroke:black;stroke-width:220px;"/>
    </g>
</svg>
